<svg width="20" height="20" viewBox="0 0 20 20" fill="none" xmlns="http://www.w3.org/2000/svg">
<path fill-rule="evenodd" clip-rule="evenodd" d="M10 11C10.7956 11 11.5587 10.6839 12.1213 10.1213C12.6839 9.55871 13 8.79565 13 8C13 7.20435 12.6839 6.44129 12.1213 5.87868C11.5587 5.31607 10.7956 5 10 5C9.20435 5 8.44129 5.31607 7.87868 5.87868C7.31607 6.44129 7 7.20435 7 8C7 8.79565 7.31607 9.55871 7.87868 10.1213C8.44129 10.6839 9.20435 11 10 11V11ZM3 20C3 19.0807 3.18106 18.1705 3.53284 17.3212C3.88463 16.4719 4.40024 15.7003 5.05025 15.0503C5.70026 14.4002 6.47194 13.8846 7.32122 13.5328C8.1705 13.1811 9.08075 13 10 13C10.9193 13 11.8295 13.1811 12.6788 13.5328C13.5281 13.8846 14.2997 14.4002 14.9497 15.0503C15.5998 15.7003 16.1154 16.4719 16.4672 17.3212C16.8189 18.1705 17 19.0807 17 20H3Z" fill="#68C5F1"/>
</svg>
